<svg width="30" height="30" viewBox="0 0 30 30" fill="none" xmlns="http://www.w3.org/2000/svg">
<path fill-rule="evenodd" clip-rule="evenodd" d="M30.0001 15.3334C30.0001 14.1 29.898 13.2 29.677 12.2667H15.3062V17.8333H23.7415C23.5715 19.2167 22.6532 21.3 20.6123 22.7L20.5837 22.8864L25.1274 26.336L25.4423 26.3668C28.3334 23.7501 30.0001 19.9001 30.0001 15.3334Z" fill="#4285F4"/>
<path fill-rule="evenodd" clip-rule="evenodd" d="M15.3062 30.0001C19.4387 30.0001 22.9081 28.6667 25.4422 26.3668L20.6122 22.7C19.3197 23.5833 17.585 24.2 15.3062 24.2C11.2585 24.2 7.8232 21.5834 6.59856 17.9668L6.41911 17.9817L1.69437 21.5651L1.63257 21.7334C4.14954 26.6334 9.31969 30.0001 15.3062 30.0001Z" fill="#34A853"/>
<path fill-rule="evenodd" clip-rule="evenodd" d="M6.59867 17.9668C6.27558 17.0335 6.08851 16.0334 6.08851 15.0001C6.08851 13.9667 6.27549 12.9667 6.58168 12.0334L6.57314 11.8346L1.78926 8.19363L1.63277 8.26662C0.595378 10.3 0.000183105 12.5833 0.000183105 15C0.000183105 17.4167 0.59547 19.6999 1.63277 21.7333L6.59876 17.9667" fill="#FBBC04"/>
<path fill-rule="evenodd" clip-rule="evenodd" d="M15.3062 5.80005C18.1803 5.80005 20.119 7.01676 21.2245 8.03349L25.5442 3.90014C22.8913 1.48345 19.4387 0.000152588 15.3062 0.000152588C9.31969 0.000152588 4.14964 3.3668 1.63257 8.26678L6.58157 12.0336C7.8232 8.4169 11.2585 5.80014 15.3062 5.80014" fill="#EA4335"/>
</svg>
